<svg xmlns="http://www.w3.org/2000/svg" version="1.1" xmlns:xlink="http://www.w3.org/1999/xlink" xmlns:svgjs="http://svgjs.dev/svgjs" width="1000" height="1000" viewBox="0 0 1000 1000"><rect width="1000" height="1000" fill="#000000"></rect><g transform="matrix(0.7,0,0,0.7,149.57575757575756,282.1265587044535)"><svg viewBox="0 0 396 247" data-background-color="#050816" preserveAspectRatio="xMidYMid meet" height="623" width="1000" xmlns="http://www.w3.org/2000/svg" xmlns:xlink="http://www.w3.org/1999/xlink"><g id="tight-bounds" transform="matrix(1,0,0,1,0.2400000000000091,-0.09999999999999432)"><svg viewBox="0 0 395.52 247.2" height="247.2" width="395.52"><g><svg></svg></g><g><svg viewBox="0 0 395.52 247.2" height="247.2" width="395.52"><g transform="matrix(1,0,0,1,75.54432000000001,53.32879484820609)"><svg viewBox="0 0 244.43135999999996 140.54241030358781" height="140.54241030358781" width="244.43135999999996"><g><svg viewBox="0 0 244.43135999999996 140.54241030358781" height="140.54241030358781" width="244.43135999999996"><g><svg viewBox="0 0 244.43136 140.54241030358784" height="140.54241030358781" width="244.43135999999996"><g><svg viewBox="0 0 244.43136 140.54241030358784" height="140.54241030358784" width="244.43136"><g><svg viewBox="0 0 244.43136 140.54241030358784" height="140.54241030358784" width="244.43136" id="textblock"><g><svg viewBox="0 0 244.43136 140.54241030358784" height="140.54241030358784" width="244.43136"><g transform="matrix(1,0,0,1,0,0)"><svg width="244.43136" viewBox="-12.5 -31.25 54.349998474121094 31.25" height="140.54241030358784" data-palette-color="#915eff"><path d="M36.35 0L26.85 0 28.75-11.05 21.6-11.05 19.7 0 10.2 0 15.7-31.25 25.2-31.25 23.25-20.2 30.4-20.2 32.35-31.25 41.85-31.25 36.35 0ZM9.1-2.4L8.7-0.15-12.5-2.4 9.1-2.4ZM10.8-12.05L10.4-9.8-10.8-12.05 10.8-12.05ZM11.65-16.85L11.25-14.6-9.95-16.85 11.65-16.85ZM12.5-21.65L12.1-19.4-9.1-21.65 12.5-21.65ZM13.3-26.45L12.95-24.2-8.25-26.45 13.3-26.45ZM9.95-7.25L9.55-5-11.65-7.25 9.95-7.25ZM14.15-31.25L13.75-29-7.4-31.25 14.15-31.25Z" opacity="1" transform="matrix(1,0,0,1,0,0)" fill="#ffffff" class="undefined-text-0" data-fill-palette-color="primary" id="text-0"></path></svg></g></svg></g></svg></g></svg></g></svg></g></svg></g></svg></g><g><path d="M0 123.6c0-68.262 55.338-123.6 123.6-123.6 34.404 0 65.525 14.056 87.933 36.739h-9.155c-20.817-18.891-48.453-30.402-78.778-30.402-64.762 0-117.263 52.5-117.263 117.263 0 64.762 52.5 117.263 117.263 117.263 30.325 0 57.962-11.511 78.778-30.402l9.155 0c-22.408 22.683-53.529 36.739-87.933 36.739-68.262 0-123.6-55.338-123.6-123.6z" fill="#915eff" stroke="transparent" data-fill-palette-color="tertiary"></path></g></svg></g><defs></defs></svg><rect width="395.52" height="247.2" fill="none" stroke="none" visibility="hidden"></rect></g></svg></g></svg>