<svg xmlns="http://www.w3.org/2000/svg" xmlns:xlink="http://www.w3.org/1999/xlink" viewBox="0 0 793.38 709"><defs><style>.cls-1{fill:teal;}.cls-2{fill:url(#linear-gradient);}</style><linearGradient id="linear-gradient" x1="93.76" y1="737.97" x2="527.29" y2="79.25" gradientUnits="userSpaceOnUse"><stop offset="0" stop-color="#1cada9"/><stop offset="0.19" stop-color="#179a96"/><stop offset="0.48" stop-color="#118480"/><stop offset="0.75" stop-color="#0d7673"/><stop offset="1" stop-color="#0c726f"/></linearGradient></defs><title>DIGI K LABS GRADIENT</title><g id="Layer_2" data-name="Layer 2"><g id="Layer_1-2" data-name="Layer 1"><path class="cls-1" d="M789,673.35,692.37,516.12a14.94,14.94,0,0,1-2.22-7.84V433.93h11.56a12.86,12.86,0,0,0,12.86-12.86v0a12.88,12.88,0,0,0-12.88-12.87H603.81a12.47,12.47,0,0,0-12.58,11.38,12.19,12.19,0,0,0,12.17,13h12.22v75.85a14.13,14.13,0,0,1-2.19,7.56L516,669.75a30.4,30.4,0,0,0-4.9,17.27c.36,10.25,5.72,15.76,10.86,18.71A26,26,0,0,0,534.89,709H771.32a26.56,26.56,0,0,0,7.93-1.15c10.85-3.41,13.78-11.45,14.1-18.36A28.38,28.38,0,0,0,789,673.35ZM583.1,608.73l54.76-87.35a14.12,14.12,0,0,0,2.15-7.5V432.57h25.75v81.06a15,15,0,0,0,2.29,8l54.62,87.14Zm186.5,84.08a10.12,10.12,0,1,1,10.12-10.11A10.12,10.12,0,0,1,769.6,692.81Z"/><path class="cls-2" d="M778,165.93,683.7,13.83c-11.17-18.4-14-18.4-23.77-.21L357.69,517.15c-2.77,4.49-7.28,5.76-12.57,5.76H266.77c-17.5,0-37.22-5.74-48.47-13.9-33.21-24.09-41.77-73.9-21.56-109.6C208.29,379,233,361.25,264,360.61l128.38.2a15.19,15.19,0,0,0,12.84-7.25L510,183.12a5.64,5.64,0,0,0-4.81-8.6H273.77C145,174.52,55.87,258.24,23.44,333.4c-35.62,82.54-30.87,177.42,15.8,254.26C76.84,649.57,145,709,273.77,709H444.44a16.79,16.79,0,0,0,14.39-8.13L585.4,490.81V457.24s-32.17-9.79-26.57-47.55c0,0,2.62-23.61,28.19-31.45a19.81,19.81,0,0,1,4.84-.72h63.47L778,180.69A14,14,0,0,0,778,165.93ZM673.23,72.38a10.5,10.5,0,1,1,10.49-10.49A10.5,10.5,0,0,1,673.23,72.38Z"/></g></g></svg>